<svg width="80" height="86" viewBox="0 0 80 86" fill="none" xmlns="http://www.w3.org/2000/svg">
<path d="M79.4627 22.7279C78.9906 19.2353 78.2168 15.7944 77.1545 12.4829C77.0889 12.2371 76.9971 11.9913 76.9053 11.7585L75.6332 8.55045L72.1447 8.36935C68.7611 8.18825 65.3775 7.67083 62.0725 6.81708C61.0234 6.54543 59.9611 6.23497 58.8201 5.85984L58.6758 5.8081C55.7119 4.82499 52.8135 3.5573 50.0463 2.01796C49.7971 1.8886 49.5611 1.74631 49.325 1.60402L46.5709 0L43.843 1.59108C43.607 1.73337 43.3578 1.87567 43.0955 2.01796C40.3414 3.54436 37.443 4.81205 34.4922 5.79516L34.3217 5.8469C33.1939 6.22204 32.1316 6.53249 31.0562 6.80414C27.7775 7.64495 24.3939 8.17532 21.0234 8.34348L17.5217 8.52458L16.2496 11.7456C16.1578 11.9784 16.0791 12.2112 16.0135 12.457C15.1742 15.0959 14.5053 17.8124 14.0332 20.5806H17.7316C18.1775 18.1746 18.7676 15.7944 19.5021 13.4919C19.5414 13.3366 19.5939 13.1943 19.6463 13.052L20.066 12.0043L21.207 11.9396C24.8398 11.7455 28.4594 11.1893 31.9742 10.2838C33.1152 9.99924 34.2562 9.66291 35.4758 9.26191L35.6332 9.21017C38.8201 8.14944 41.9283 6.79121 44.8791 5.16132C45.1545 5.00609 45.4168 4.85086 45.6922 4.70857L46.584 4.19114L47.4758 4.70857C47.7381 4.86379 48.0004 5.01903 48.2758 5.16132C51.2266 6.79121 54.3348 8.16238 57.5217 9.21017L57.6791 9.26191C58.8988 9.66291 60.0398 9.99924 61.1676 10.2838C64.6955 11.1893 68.3283 11.7455 71.948 11.9396L73.0889 12.0043L73.5086 13.052C73.5611 13.1943 73.6135 13.3366 73.6529 13.4919C74.6627 16.6223 75.3971 19.8821 75.843 23.1806C76.184 25.6772 76.3545 28.2385 76.3545 30.7997C76.3545 36.7242 75.4365 42.5582 73.6398 48.1464C72.6168 51.3415 71.2791 54.4849 69.6922 57.473C68.0791 60.5129 66.1644 63.4363 64.0135 66.1399C61.7971 68.921 59.3053 71.5211 56.6037 73.8754C53.7709 76.3331 50.7021 78.5322 47.4758 80.382L46.584 80.8994L45.6922 80.382C42.4529 78.5192 39.384 76.3331 36.5644 73.8754C33.8627 71.5211 31.3709 68.921 29.1545 66.1399C28.2627 65.0145 27.4102 63.8503 26.5971 62.6472H22.2693C23.4889 64.6264 24.8398 66.5279 26.2824 68.3518C28.6299 71.3141 31.2791 74.0694 34.1512 76.566C37.1545 79.179 40.4201 81.5074 43.8562 83.4736L46.584 85.0517L49.3119 83.4736C52.748 81.4944 56.0135 79.166 59.0168 76.553C61.8889 74.0565 64.5381 71.2882 66.8857 68.3389C69.1676 65.4543 71.2004 62.3627 72.9184 59.1287C74.6103 55.9466 76.0266 52.6092 77.1152 49.2201C79.0299 43.2826 80.0004 37.0735 80.0004 30.7868C80.0004 28.0962 79.8168 25.3668 79.4627 22.7279Z" fill="url(#paint0_linear_210_379)"/>
<path d="M72.8286 30.8257C72.8286 36.388 71.9761 41.8727 70.2843 47.1246C69.3269 50.1257 68.081 53.075 66.5728 55.882C65.0515 58.7408 63.2679 61.4831 61.2351 64.0315C59.163 66.6445 56.8155 69.0893 54.2712 71.3013C51.8712 73.3839 49.2876 75.2596 46.5859 76.8895C46.5204 76.8507 46.4548 76.8119 46.4023 76.773V46.7753H52.6843L49.6155 34.6029C50.6122 33.7104 51.2417 32.4297 51.2417 30.9939C51.2417 28.3421 49.0778 26.1818 46.4023 26.143V8.33066C46.4679 8.30478 46.5335 8.26598 46.5859 8.22717C49.7073 9.94761 52.9991 11.3964 56.3564 12.5089C56.4351 12.5347 56.5138 12.5606 56.5794 12.5865C57.8646 13.0134 59.0843 13.3626 60.2778 13.6731C63.6351 14.5398 67.0712 15.1089 70.5335 15.3547C71.3466 18.0453 71.963 20.8265 72.3302 23.6594C72.6581 26.0007 72.8286 28.4067 72.8286 30.8257Z" fill="url(#paint1_linear_210_379)"/>
<path d="M46.402 26.143V46.7753H39.9102L43.0315 34.6029C42.0347 33.7103 41.4052 32.4297 41.4052 30.9938C41.4052 28.3161 43.6085 26.143 46.3233 26.143C46.3495 26.13 46.3757 26.143 46.402 26.143Z" fill="url(#paint2_linear_210_379)"/>
<path d="M26.5049 26.3111V26.6345C26.5049 27.5918 25.718 28.3679 24.7475 28.3679H14.5835C14.0458 28.3679 13.5737 28.1351 13.2458 27.7599C12.9835 27.4624 12.8262 27.0614 12.8262 26.6345V26.3111C12.8262 25.7808 13.0754 25.3022 13.4557 24.9917C13.7573 24.733 14.1508 24.5778 14.5967 24.5778H24.7606C25.718 24.5778 26.5049 25.3539 26.5049 26.3111Z" fill="#0C1011"/>
<path d="M24.2744 41.4715V41.7949C24.2744 42.7522 23.4744 43.5283 22.517 43.5283H12.3531C11.3826 43.5283 10.5957 42.7392 10.5957 41.7949V41.4715C10.5957 40.5143 11.3957 39.7382 12.3531 39.7382H22.517C23.4875 39.7382 24.2744 40.5272 24.2744 41.4715Z" fill="#0C1011"/>
<path d="M26.5849 56.7228V57.0462C26.5849 57.8482 26.0341 58.5208 25.2735 58.7278C25.1292 58.7666 24.9718 58.7925 24.8276 58.7925H14.6636C13.6931 58.7925 12.9062 58.0034 12.9062 57.0591V56.7228C12.9062 55.7655 13.6931 54.9894 14.6636 54.9894H24.8276C25.7981 54.9765 26.5849 55.7655 26.5849 56.7228Z" fill="#0C1011"/>
<path d="M34.8727 34.0466C34.8727 34.564 34.6628 35.0426 34.3087 35.3789C33.9677 35.7282 33.4825 35.9352 32.9579 35.9352H18.2956C17.7973 35.9352 17.3514 35.7541 17.0104 35.4436C16.6169 35.1073 16.3809 34.6028 16.3809 34.0466C16.3809 33.5679 16.5645 33.1281 16.8661 32.8047C16.8923 32.7789 16.9186 32.7401 16.9579 32.7142C17.2989 32.3649 17.7841 32.158 18.3087 32.158H32.971C34.0071 32.158 34.8727 33.0117 34.8727 34.0466Z" fill="#0C1011"/>
<path d="M34.8721 49.1424C34.8721 49.6598 34.6623 50.1384 34.3082 50.4748C33.9672 50.824 33.4819 51.031 32.9574 51.031H18.2951C17.2328 51.031 16.3672 50.1772 16.3672 49.1295C16.3672 48.612 16.577 48.1334 16.9311 47.7971C17.2721 47.4478 17.7574 47.2408 18.2819 47.2408H32.9442C34.0065 47.2408 34.8721 48.0946 34.8721 49.1424Z" fill="#0C1011"/>
<path d="M32.9453 28.3678H30.6896C29.6273 28.3678 28.7617 27.514 28.7617 26.4662C28.7617 25.4184 29.6273 24.5647 30.6896 24.5647H32.9453C34.0076 24.5647 34.8732 25.4184 34.8732 26.4662C34.8732 27.514 34.0076 28.3678 32.9453 28.3678Z" fill="#0C1011"/>
<path d="M32.9453 58.5465H30.6896C29.6273 58.5465 28.7617 57.6927 28.7617 56.6449C28.7617 55.5972 29.6273 54.7434 30.6896 54.7434H32.9453C34.0076 54.7434 34.8732 55.5972 34.8732 56.6449C34.8732 57.6927 34.0076 58.5465 32.9453 58.5465Z" fill="#0C1011"/>
<path d="M11.5403 51.031H8.39271C7.33042 51.031 6.46484 50.1772 6.46484 49.1294C6.46484 48.0817 7.33042 47.2279 8.39271 47.2279H11.5403C12.6025 47.2279 13.4681 48.0817 13.4681 49.1294C13.4681 50.1902 12.6025 51.031 11.5403 51.031Z" fill="#0C1011"/>
<path d="M13.5998 34.0466C13.5998 34.3958 13.4949 34.7321 13.3244 35.0167C13.2457 35.1461 13.1408 35.2754 13.0359 35.3789C12.6949 35.7282 12.2097 35.9352 11.6851 35.9352H8.40639C7.34409 35.9352 6.47852 35.0814 6.47852 34.0336C6.47852 33.5162 6.68835 33.0376 7.04245 32.7013C7.38343 32.352 7.86868 32.145 8.39327 32.145H11.672C12.3015 32.145 12.8654 32.4425 13.2064 32.9082C13.4556 33.2316 13.5998 33.6326 13.5998 34.0466Z" fill="#0C1011"/>
<path d="M32.9432 43.5283H28.9826C27.9203 43.5283 27.0547 42.6745 27.0547 41.6268C27.0547 40.579 27.9203 39.7252 28.9826 39.7252H32.9432C34.0055 39.7252 34.8711 40.579 34.8711 41.6268C34.8711 42.6745 34.0055 43.5283 32.9432 43.5283Z" fill="#0C1011"/>
<path d="M6.08524 43.5283H1.92787C0.865575 43.5283 0 42.6745 0 41.6268C0 40.579 0.865575 39.7252 1.92787 39.7252H6.08524C7.14754 39.7252 8.01311 40.579 8.01311 41.6268C8.01311 42.6745 7.14754 43.5283 6.08524 43.5283Z" fill="#0C1011"/>
<defs>
<linearGradient id="paint0_linear_210_379" x1="47.0188" y1="85.0882" x2="47.0188" y2="0.0248337" gradientUnits="userSpaceOnUse">
<stop stop-color="#168D46"/>
<stop offset="0.1126" stop-color="#2A9047"/>
<stop offset="0.2788" stop-color="#4C9947"/>
<stop offset="0.4784" stop-color="#76A748"/>
<stop offset="0.7037" stop-color="#A7BE49"/>
<stop offset="0.9478" stop-color="#DDDD4C"/>
<stop offset="1" stop-color="#E9E44D"/>
</linearGradient>
<linearGradient id="paint1_linear_210_379" x1="59.6126" y1="76.8742" x2="59.6126" y2="8.23196" gradientUnits="userSpaceOnUse">
<stop stop-color="#168D46"/>
<stop offset="0.1126" stop-color="#2A9047"/>
<stop offset="0.2788" stop-color="#4C9947"/>
<stop offset="0.4784" stop-color="#76A748"/>
<stop offset="0.7037" stop-color="#A7BE49"/>
<stop offset="0.9478" stop-color="#DDDD4C"/>
<stop offset="1" stop-color="#E9E44D"/>
</linearGradient>
<linearGradient id="paint2_linear_210_379" x1="43.1582" y1="46.774" x2="43.1582" y2="26.1335" gradientUnits="userSpaceOnUse">
<stop stop-color="#168D46"/>
<stop offset="0.1126" stop-color="#2A9047"/>
<stop offset="0.2788" stop-color="#4C9947"/>
<stop offset="0.4784" stop-color="#76A748"/>
<stop offset="0.7037" stop-color="#A7BE49"/>
<stop offset="0.9478" stop-color="#DDDD4C"/>
<stop offset="1" stop-color="#E9E44D"/>
</linearGradient>
</defs>
</svg>
